<svg width="250" height="250" viewBox="0 0 250 250" fill="none" xmlns="http://www.w3.org/2000/svg">
<path d="M135.794 58.1248C120.83 58.1248 112.175 64.8033 108 69.4172C107.504 65.4414 104.867 60.2834 94.5788 60.2834H72.2363V83.5455H81.393C82.9421 83.5455 83.441 84.0374 83.441 85.5754V191.79H110.074V151.925C110.074 150.849 110.053 149.843 110.025 148.944C114.185 152.744 122.13 157.976 134.541 157.976C160.572 157.976 178.772 137.451 178.772 108.055C178.772 78.1922 161.491 58.1248 135.794 58.1248ZM130.383 134.902C116.046 134.902 109.532 121.247 109.532 108.596C109.532 88.6687 120.488 81.5662 130.74 81.5662C143.312 81.5662 151.767 92.348 151.767 108.409C151.767 126.725 141.018 134.902 130.385 134.902" fill="#231F1F"/>
<path d="M135.794 58.1248C120.83 58.1248 112.172 64.8033 108 69.4158C107.501 65.4414 104.867 60.2834 94.5788 60.2834H72.2363V83.5455H81.393C82.9421 83.5455 83.441 84.0374 83.441 85.574V144.764C95.8874 140.464 108.409 136.382 121 132.521C113.174 128.066 109.532 118.055 109.532 108.593C109.532 88.6702 120.488 81.5663 130.74 81.5663C143.312 81.5663 151.767 92.348 151.767 108.409C151.767 115.154 150.295 120.505 147.918 124.593C157.976 121.758 168.069 119.046 178.194 116.458C178.526 113.745 178.772 110.951 178.772 108.055C178.772 78.1922 161.491 58.1248 135.794 58.1248Z" fill="#3B3B3C"/>
</svg>
